<?xml version="1.0" encoding="UTF-8"?>
<svg id="_レイヤー_2" data-name="レイヤー 2" xmlns="http://www.w3.org/2000/svg" viewBox="0 0 427.29 97.11">
  <defs>
    <style>
      .cls-1 {
        fill: none;
      }

      .cls-2 {
        fill: #45b035;
      }

      .cls-3 {
        fill: #231815;
      }

      .cls-4 {
        fill: #fff;
      }
    </style>
  </defs>
  <g id="_レイヤー_1-2" data-name="レイヤー 1">
    <g>
      <g>
        <g>
          <path class="cls-2" d="M39.64,67.43c6.3-6.96,12.89-12.23,12.89-12.23,2.06-1.78,11.76-9.84,24.79-16.04,5.09-2.61,10.44-5.18,15.8-7.18,4.65-1.73,9.19-2.96,14.03-4.1,3.76-.88,9.06-1.38,11.15-1.43l.26.51c-4.5.31-7.93.87-12.6,2.07-7.75,1.99-14.97,6.06-21.65,10.37-1.8,1.17-3.58,2.38-5.33,3.62-9.14,6.5-17.94,14.53-20.05,16.51-10.39,9.77-18.06,20.2-18.06,20.2-.24.28-.42.84-1.02,1.02-.94.31-2.35.15-2.35.15-.77-.05-3.43-.51-3.43-.51-.44-.09-2-.45-3.28-.51-.92-.03-1.18-.05-1.95.36.87-1.28,5.26-7,10.79-12.83Z"/>
          <g>
            <path class="cls-3" d="M17.81,75.08c.44-.28.79-.6,1.07-.97.28-.37.49-.84.63-1.39.14-.56.24-1.25.3-2.09.12-1.92.22-3.88.28-5.87.06-2,.1-4.28.1-6.86v-6.31c0-2.57-.03-4.86-.1-6.85-.06-2-.16-4-.28-6.02.53.06,1.1.12,1.72.16.62.05,1.32.07,2.1.07s1.47-.02,2.09-.07c.62-.05,1.19-.1,1.72-.16-.12,2.01-.22,4.02-.28,6.02-.07,2-.1,4.28-.1,6.85v6.31c0,1.3.02,2.67.05,4.09.03,1.42.05,2.88.05,4.36,0,3.62-.86,6.35-2.58,8.18-1.72,1.82-4.29,3.01-7.69,3.57l-.69-2.18c.65-.28,1.19-.56,1.62-.84Z"/>
            <path class="cls-3" d="M40.36,60.21c-.25,3.47-.49,6.93-.74,10.4-.37-.06-.74-.09-1.11-.09h-2.16c-.35,0-.72.03-1.09.09.99-5.32,1.87-10.62,2.65-15.88.77-5.26,1.49-10.6,2.13-16.02.34.06.66.12.95.16.29.05.61.07.95.07.28,0,.57-.02.88-.07.31-.05.63-.1.98-.16.83,1.86,1.71,3.75,2.62,5.67.91,1.92,1.82,3.83,2.74,5.74.92,1.9,1.83,3.77,2.74,5.59.91,1.83,1.79,3.56,2.62,5.2,1.86-3.47,3.71-7.1,5.55-10.89,1.84-3.79,3.59-7.56,5.27-11.31.78.16,1.44.23,2,.23.52,0,1.17-.08,1.95-.23.31,2.66.64,5.53,1,8.59.35,3.06.7,6.06,1.05,8.98.34,2.93.68,5.66,1.02,8.2.34,2.54.65,4.58.93,6.13-.62-.06-1.25-.09-1.88-.09h-3.78c-.65,0-1.3.03-1.95.09-.16-3.19-.41-6.64-.77-10.36-.36-3.71-.72-7.4-1.09-11.05h-.09c-1.77,3.65-3.5,7.24-5.2,10.78-1.7,3.53-3.39,7.07-5.06,10.63-.15-.03-.3-.05-.44-.07-.14-.02-.29-.02-.44-.02s-.3,0-.44.02c-.14.02-.29.04-.44.07-1.67-3.47-3.33-6.94-4.99-10.4-1.66-3.47-3.37-6.98-5.13-10.54h-.09c-.5,3.56-.87,7.07-1.12,10.54Z"/>
            <path class="cls-3" d="M98.8,55.15c-1.17-.05-2.35-.07-3.52-.07s-2.35.02-3.52.05c-1.18.03-2.35.08-3.52.14v2.64c0,2.57.03,4.85.09,6.84.06,1.99.16,3.95.28,5.87-.53-.06-1.1-.09-1.72-.09h-4.19c-.62,0-1.19.03-1.72.09.12-1.92.22-3.88.28-5.87.06-2,.09-4.28.09-6.85v-6.32c0-2.57-.03-4.85-.09-6.85-.06-2-.16-4-.28-6.01.53.06,1.1.12,1.72.16.62.05,1.32.07,2.1.07s1.47-.02,2.09-.07c.62-.05,1.19-.1,1.72-.16-.16,2.02-.26,4.01-.3,5.98-.05,1.97-.07,4.24-.07,6.81.81.03,1.77.06,2.9.07,1.13.02,2.52.02,4.19.02s3.03,0,4.08-.02c1.05-.01,2.02-.04,2.92-.07,0-2.57-.03-4.84-.09-6.81-.06-1.97-.15-3.96-.28-5.98.53.06,1.1.12,1.72.16.62.05,1.32.07,2.09.07s1.47-.02,2.09-.07,1.2-.1,1.72-.16c-.12,2.02-.21,4.02-.28,6.02-.06,2-.09,4.29-.09,6.86v6.31c0,2.57.03,4.85.09,6.85.07,2,.16,3.95.28,5.87-.53-.06-1.1-.09-1.72-.09h-4.18c-.62,0-1.19.03-1.72.09.12-1.91.22-3.87.28-5.87.06-1.99.09-4.27.09-6.84v-2.64c-1.17-.03-2.35-.07-3.52-.12Z"/>
            <path class="cls-3" d="M141.92,67.34c-.19.67-.31,1.32-.37,1.97-2.51,1.27-5.66,1.91-9.47,1.91-2.69,0-5.1-.38-7.22-1.14-2.12-.75-3.92-1.82-5.39-3.2-1.47-1.38-2.6-3.01-3.37-4.9-.77-1.89-1.16-3.93-1.16-6.13,0-3.22.5-5.95,1.51-8.2,1.01-2.25,2.36-4.07,4.05-5.48,1.69-1.41,3.65-2.44,5.88-3.09,2.23-.65,4.56-.97,7.01-.97.8,0,1.66.06,2.55.19.9.12,1.76.29,2.6.49.83.2,1.63.44,2.39.72.76.28,1.4.58,1.93.88-.31.78-.55,1.56-.72,2.34-.17.79-.29,1.59-.35,2.39h-.65c-1.18-1.48-2.38-2.54-3.62-3.18-1.24-.64-2.69-.95-4.36-.95-1.24,0-2.48.28-3.74.84-1.25.55-2.39,1.41-3.41,2.55-1.02,1.15-1.85,2.61-2.48,4.39-.64,1.78-.95,3.91-.95,6.39s.32,4.42.97,6.11c.65,1.69,1.49,3.06,2.53,4.13,1.04,1.07,2.21,1.85,3.53,2.34,1.32.5,2.64.75,3.97.75.74,0,1.5-.09,2.28-.26.77-.17,1.53-.4,2.27-.7.74-.29,1.44-.66,2.11-1.09.67-.43,1.24-.91,1.74-1.44l.6.37c-.25.65-.46,1.31-.65,1.97Z"/>
          </g>
          <g>
            <path class="cls-2" d="M132.89,16.19c-4.86-.21-8.98,2.33-11.48,6.31-.95,1.42-1.35,2.75-1.53,3.51,5.96-6,13.02-9.11,22.98-4.88v.07c-10.25-3.83-18.27,1.11-22.9,5.5,4.64,2.72,12.81,3.58,16.96.94.92-.59,7.29-6.04,8.76-5.75-2.03-1.8-7.8-5.49-12.78-5.69Z"/>
            <path class="cls-4" d="M142.84,21.19v-.07c-9.95-4.23-17.01-1.12-22.97,4.88-.07.27-.1.47-.13.57.07.04.13.08.21.12,4.63-4.39,12.65-9.32,22.89-5.5Z"/>
          </g>
        </g>
        <g>
          <g>
            <path class="cls-2" d="M166.08,58.1c-.17,2.34-.33,4.67-.5,7.01-.25-.03-.5-.05-.75-.05h-1.46c-.24,0-.49.01-.74.05.67-3.59,1.26-7.16,1.78-10.71.52-3.55,1.01-7.14,1.44-10.79.23.05.44.09.64.13.2.04.41.05.64.05.19,0,.39-.02.6-.05.21-.03.43-.08.66-.13.56,1.25,1.15,2.52,1.77,3.82.62,1.29,1.23,2.58,1.85,3.86.62,1.29,1.23,2.54,1.85,3.77.62,1.23,1.2,2.4,1.77,3.51,1.25-2.34,2.5-4.78,3.74-7.34,1.24-2.56,2.43-5.1,3.55-7.62.52.12.97.18,1.35.18.35,0,.79-.06,1.31-.18.21,1.79.43,3.72.67,5.79.24,2.06.47,4.08.7,6.06.23,1.97.46,3.81.69,5.52.23,1.71.44,3.09.63,4.13-.42-.03-.84-.05-1.27-.05h-2.55c-.44,0-.87.01-1.31.05-.1-2.15-.28-4.47-.52-6.98-.24-2.5-.49-4.99-.74-7.45h-.06c-1.19,2.46-2.36,4.88-3.51,7.26-1.15,2.38-2.29,4.77-3.41,7.17-.1-.02-.21-.03-.29-.03-.1-.01-.2-.01-.3-.01s-.21,0-.3.01c-.09,0-.19.02-.3.03-1.12-2.34-2.24-4.67-3.36-7.01-1.12-2.34-2.27-4.7-3.46-7.1h-.06c-.33,2.4-.59,4.77-.75,7.1Z"/>
            <path class="cls-3" d="M195.3,59.99c.16.73.42,1.36.76,1.89.35.54.78.95,1.32,1.25.53.3,1.16.45,1.86.45,1.44,0,2.73-.47,3.85-1.41l.37.28-.69,1.76c-.52.39-1.15.71-1.88.95-.73.24-1.69.36-2.88.36-1.02,0-1.99-.14-2.91-.43-.92-.28-1.73-.74-2.43-1.39-.7-.64-1.26-1.46-1.67-2.46-.41-.99-.61-2.18-.61-3.55s.18-2.54.55-3.54c.36-1,.87-1.84,1.52-2.51.65-.66,1.42-1.17,2.3-1.5.89-.33,1.85-.5,2.9-.5,2.07,0,3.65.61,4.75,1.82,1.1,1.22,1.65,2.93,1.65,5.15v.66c0,.19-.02.31-.05.38h-8.98c0,.84.08,1.61.25,2.35ZM199.29,52.47c-.35-.94-.92-1.41-1.74-1.41-.46,0-.85.16-1.16.47-.31.31-.56.71-.75,1.2-.19.49-.33,1.04-.43,1.66-.09.61-.15,1.22-.17,1.83h4.83c-.04-1.56-.23-2.81-.58-3.75Z"/>
            <path class="cls-3" d="M220.57,60.02c.04,1.71.1,3.41.17,5.1-.27-.04-.62-.07-1.04-.07h-2.53c-.39,0-.68.02-.9.07.02-.04.04-.17.06-.41.02-.23.05-.49.08-.78.03-.3.06-.56.08-.82.02-.25.03-.41.03-.47l-.06-.07c-.4.94-.94,1.66-1.62,2.18-.69.51-1.63.77-2.84.77-1.06,0-1.96-.2-2.71-.61-.75-.4-1.36-.98-1.84-1.71-.48-.73-.83-1.59-1.06-2.57-.23-.98-.34-2.03-.34-3.17s.16-2.16.47-3.11c.31-.95.74-1.77,1.29-2.48.54-.7,1.19-1.25,1.93-1.65.74-.4,1.53-.59,2.37-.59.94,0,1.78.22,2.52.67.74.44,1.29,1,1.65,1.68h.04c0-1.88-.02-3.65-.06-5.3-.04-1.65-.09-3.37-.17-5.14.27.03.61.07,1.02.1.41.02.85.04,1.3.04s.89-.01,1.3-.04c.41-.03.75-.06,1.02-.1-.08,1.75-.13,3.48-.17,5.19-.04,1.71-.06,3.59-.06,5.63v2.03c0,2.04.02,3.92.06,5.63ZM210.92,60.64c.15.73.35,1.32.6,1.77.24.45.53.77.85.97.33.2.66.3,1.02.3.85,0,1.55-.48,2.11-1.46.55-.96.82-2.58.82-4.84,0-1.95-.26-3.36-.78-4.25-.52-.89-1.19-1.33-2-1.33-.33,0-.67.1-1,.28-.33.19-.63.52-.9.99-.27.47-.49,1.1-.67,1.9-.18.79-.26,1.79-.26,2.98,0,1.06.07,1.97.21,2.69Z"/>
            <path class="cls-3" d="M224.35,44.14c0,.68.24,1.27.71,1.75.48.48,1.06.71,1.75.71s1.27-.24,1.75-.71c.48-.48.72-1.06.72-1.75s-.24-1.27-.72-1.75c-.48-.48-1.06-.72-1.75-.72s-1.27.24-1.75.72c-.48.48-.71,1.06-.71,1.75ZM224.71,57v1.25c0,1.28-.01,2.47-.04,3.6-.03,1.13-.1,2.21-.19,3.25.29-.03.63-.05,1.02-.05h2.62c.4,0,.74.01,1.01.05-.09-1.04-.15-2.13-.19-3.25-.03-1.13-.04-2.33-.04-3.6v-1.25c0-1.27.02-2.47.04-3.59.03-1.11.09-2.24.19-3.36-.58.1-1.35.15-2.33.15-.48,0-.91-.01-1.3-.04-.39-.03-.73-.07-1.02-.11.1,1.13.16,2.25.19,3.36.03,1.12.04,2.31.04,3.59Z"/>
            <path class="cls-3" d="M243.22,52.11c-.49-.57-1.22-.86-2.18-.86-1.25,0-2.19.57-2.82,1.71-.63,1.14-.94,2.72-.94,4.74,0,1.9.4,3.36,1.19,4.37.79,1.01,1.96,1.52,3.48,1.52.64,0,1.27-.15,1.88-.45.61-.3,1.05-.64,1.35-1.02l.38.31c-.15.29-.27.59-.38.91-.1.31-.21.63-.31.94-.46.35-1.04.65-1.74.89-.7.24-1.53.36-2.49.36-1.53,0-2.81-.22-3.85-.66-1.04-.44-1.88-1.03-2.52-1.78-.64-.75-1.09-1.6-1.36-2.56-.27-.95-.4-1.9-.4-2.86,0-1.15.19-2.22.58-3.19.38-.98.94-1.83,1.66-2.54.72-.71,1.59-1.27,2.61-1.68,1.02-.4,2.16-.61,3.41-.61s2.2.14,3.02.41c.82.27,1.61.63,2.37,1.08-.25.41-.49.93-.71,1.53-.22.6-.38,1.18-.48,1.72h-.75c-.17-.94-.5-1.69-.99-2.27Z"/>
            <path class="cls-3" d="M251.48,50.2c1.01-.37,2.02-.56,3.02-.56.83,0,1.6.1,2.3.28.69.19,1.3.49,1.82.89.51.41.91.94,1.19,1.59.28.65.42,1.43.42,2.35,0,1.34-.02,2.58-.05,3.71-.03,1.14-.05,2.27-.05,3.4,0,.51.03.89.11,1.18.07.28.18.49.32.64.15.15.34.24.58.28.24.04.52.06.83.06v.76c-.61.25-1.12.44-1.53.56-.42.12-.87.19-1.35.19-.77,0-1.4-.19-1.87-.56-.48-.38-.85-.92-1.1-1.63-.49.67-1.05,1.2-1.68,1.59-.64.4-1.45.6-2.41.6-.79,0-1.47-.11-2.03-.31-.56-.21-1.03-.5-1.39-.89-.36-.39-.63-.82-.8-1.32-.17-.49-.25-.99-.25-1.49,0-.69.11-1.29.33-1.78.22-.5.53-.93.94-1.29.4-.35.89-.66,1.45-.89.57-.24,1.21-.45,1.91-.61.88-.21,1.58-.4,2.09-.55.51-.16.9-.31,1.15-.47.25-.16.41-.33.48-.52.07-.19.11-.42.11-.69,0-.75-.26-1.39-.8-1.92-.54-.53-1.27-.8-2.21-.8-.35,0-.72.05-1.09.14-.38.1-.74.22-1.08.39s-.66.35-.94.55c-.28.2-.49.41-.64.64h-.22l-.41-1.88c.87-.71,1.82-1.25,2.84-1.63ZM256.1,58.3c.02-.47.02-.88.02-1.24-.45.25-.92.46-1.41.61-.5.16-.95.36-1.37.6-.41.24-.75.57-1.02.99-.26.42-.4,1.02-.4,1.81s.17,1.36.49,1.77c.32.41.76.61,1.31.61.69,0,1.26-.26,1.69-.78.43-.52.65-1.3.65-2.32,0-.9,0-1.58.02-2.05Z"/>
            <path class="cls-3" d="M264.69,46.72c-.04-1.71-.1-3.44-.17-5.19.27.03.61.07,1.02.1.41.02.85.04,1.3.04s.89-.01,1.3-.04c.41-.03.75-.06,1.02-.1-.08,1.75-.14,3.48-.18,5.19-.04,1.71-.06,3.59-.06,5.63v2.04c0,2.04.02,3.92.06,5.63.04,1.71.1,3.4.18,5.1-.27-.03-.61-.05-1.02-.05h-2.61c-.41,0-.75.01-1.02.05.07-1.69.13-3.39.17-5.1.04-1.71.06-3.58.06-5.63v-2.04c0-2.04-.02-3.92-.06-5.63Z"/>
            <path class="cls-3" d="M286.13,64.94c-.99.32-2,.49-3,.49-.78,0-1.48-.11-2.07-.32-.59-.22-1.09-.51-1.5-.89-.4-.37-.7-.8-.9-1.28-.2-.47-.3-.96-.3-1.47,0-.65.11-1.23.33-1.74.21-.51.52-.97.91-1.39.39-.42.87-.8,1.43-1.15.56-.35,1.17-.7,1.84-1.05-.54-.75-.97-1.45-1.32-2.09-.34-.64-.51-1.32-.51-2.02s.14-1.35.41-1.85c.28-.5.63-.91,1.07-1.24.44-.33.93-.56,1.48-.7.55-.14,1.11-.22,1.66-.22.59,0,1.13.07,1.62.21.5.13.92.32,1.3.58.36.24.65.56.85.95.2.38.31.83.31,1.32,0,.82-.26,1.56-.78,2.22-.52.66-1.34,1.34-2.43,2.04.64.85,1.28,1.67,1.93,2.44.65.78,1.33,1.57,2.03,2.37.44-.52.91-1.17,1.43-1.97.52-.8,1.04-1.75,1.55-2.86.24.27.47.53.69.77.22.24.45.47.69.69-.55.85-1.12,1.62-1.69,2.3-.58.69-1.17,1.38-1.79,2.08.26.31.56.65.87,1,.32.35.64.7.96,1.07.33.36.65.7.98,1.04.33.33.63.62.92.85-.62-.02-1.17-.03-1.65-.03-.48-.01-.96-.01-1.43-.01-.33,0-.67,0-1.02.01-.34,0-.68.02-1.04.03l-1.2-1.58c-.75.62-1.63,1.08-2.63,1.41ZM281.96,61.39c.16.41.4.78.71,1.11.32.34.71.61,1.16.82.45.21.96.31,1.53.31.5,0,.99-.09,1.47-.26.47-.17.88-.41,1.21-.71-.75-.92-1.5-1.84-2.24-2.75-.74-.91-1.47-1.84-2.19-2.79-.58.43-1.04.89-1.38,1.37-.33.48-.5,1.03-.5,1.66,0,.42.08.83.24,1.24ZM284.72,52.62c.31.61.68,1.2,1.1,1.79.2-.15.42-.34.66-.58.24-.24.46-.5.66-.8.2-.3.36-.63.5-.98.14-.35.21-.72.21-1.1,0-.55-.19-.99-.56-1.33-.37-.33-.78-.5-1.24-.5-.49,0-.91.16-1.27.46-.36.31-.53.76-.53,1.34,0,.52.16,1.08.46,1.69Z"/>
            <path class="cls-2" d="M316.22,54.66c-.79-.03-1.58-.05-2.37-.05s-1.58.01-2.38.03c-.79.02-1.58.06-2.37.1v1.78c0,1.73.02,3.27.07,4.62.05,1.34.12,2.66.21,3.96-.36-.03-.74-.05-1.16-.05h-2.83c-.42,0-.8.01-1.16.05.08-1.29.14-2.62.18-3.96.03-1.35.05-2.89.05-4.62v-4.26c0-1.73-.02-3.27-.05-4.62-.04-1.35-.1-2.7-.18-4.05.36.05.74.09,1.16.13.42.04.9.05,1.42.05s1-.02,1.42-.05c.42-.03.81-.08,1.16-.13-.12,1.35-.19,2.7-.22,4.02-.03,1.33-.05,2.85-.05,4.59.54.02,1.19.03,1.95.03.76.01,1.7.01,2.82.01s2.04,0,2.74-.01c.71,0,1.37-.02,1.97-.03,0-1.73-.02-3.26-.06-4.59-.04-1.32-.1-2.67-.17-4.02.36.05.75.09,1.16.13.42.04.89.05,1.42.05s1-.02,1.42-.05c.41-.03.81-.08,1.16-.13-.09,1.35-.16,2.7-.21,4.05-.05,1.34-.07,2.88-.07,4.6v4.27c0,1.73.02,3.28.07,4.62.05,1.35.12,2.67.21,3.96-.36-.03-.75-.05-1.16-.05h-2.83c-.42,0-.81.01-1.16.05.08-1.29.13-2.62.17-3.96.03-1.35.06-2.89.06-4.62v-1.78c-.79-.02-1.58-.05-2.37-.08Z"/>
            <path class="cls-3" d="M331.98,59.99c.17.73.42,1.36.77,1.89.34.54.78.95,1.31,1.25.54.3,1.16.45,1.86.45,1.44,0,2.73-.47,3.85-1.41l.37.28-.68,1.76c-.52.39-1.15.71-1.88.95-.73.24-1.69.36-2.88.36-1.02,0-2-.14-2.91-.43-.92-.28-1.73-.74-2.43-1.39-.7-.64-1.26-1.46-1.67-2.46-.4-.99-.61-2.18-.61-3.55s.18-2.54.55-3.54c.36-1,.87-1.84,1.52-2.51.64-.66,1.41-1.17,2.3-1.5.89-.33,1.86-.5,2.9-.5,2.07,0,3.65.61,4.75,1.82,1.1,1.22,1.64,2.93,1.64,5.15v.66c0,.19-.02.31-.04.38h-8.98c0,.84.09,1.61.25,2.35ZM335.98,52.47c-.35-.94-.93-1.41-1.74-1.41-.46,0-.85.16-1.15.47-.32.31-.57.71-.76,1.2-.19.49-.33,1.04-.43,1.66-.09.61-.15,1.22-.17,1.83h4.83c-.04-1.56-.24-2.81-.58-3.75Z"/>
            <path class="cls-3" d="M346.38,50.2c1.01-.37,2.02-.56,3.02-.56.83,0,1.6.1,2.3.28.69.19,1.3.49,1.81.89.51.41.9.94,1.19,1.59.28.65.43,1.43.43,2.35,0,1.34-.02,2.58-.05,3.71-.03,1.14-.05,2.27-.05,3.4,0,.51.03.89.11,1.18.07.28.18.49.33.64.14.15.34.24.58.28.24.04.52.06.84.06v.76c-.61.25-1.12.44-1.54.56-.42.12-.87.19-1.34.19-.77,0-1.4-.19-1.88-.56-.48-.38-.85-.92-1.09-1.63-.48.67-1.05,1.2-1.68,1.59-.65.4-1.45.6-2.42.6-.78,0-1.47-.11-2.03-.31-.56-.21-1.03-.5-1.39-.89-.36-.39-.63-.82-.79-1.32-.17-.49-.25-.99-.25-1.49,0-.69.11-1.29.33-1.78.22-.5.53-.93.94-1.29.41-.35.89-.66,1.46-.89.56-.24,1.2-.45,1.91-.61.88-.21,1.58-.4,2.09-.55.51-.16.89-.31,1.14-.47.25-.16.42-.33.48-.52.07-.19.12-.42.12-.69,0-.75-.27-1.39-.8-1.92-.53-.53-1.27-.8-2.21-.8-.36,0-.72.05-1.09.14-.38.1-.74.22-1.09.39-.34.17-.66.35-.93.55-.28.2-.5.41-.64.64h-.22l-.41-1.88c.88-.71,1.82-1.25,2.84-1.63ZM351,58.3c.01-.47.02-.88.02-1.24-.45.25-.92.46-1.41.61-.5.16-.95.36-1.36.6-.42.24-.76.57-1.02.99-.26.42-.4,1.02-.4,1.81s.17,1.36.49,1.77c.33.41.76.61,1.31.61.7,0,1.26-.26,1.69-.78.44-.52.65-1.3.65-2.32,0-.9,0-1.58.02-2.05Z"/>
            <path class="cls-3" d="M359.58,46.72c-.04-1.71-.09-3.44-.17-5.19.26.03.61.07,1.02.1.41.02.85.04,1.3.04s.89-.01,1.3-.04c.41-.03.76-.06,1.02-.1-.08,1.75-.14,3.48-.17,5.19-.04,1.71-.06,3.59-.06,5.63v2.04c0,2.04.02,3.92.06,5.63.03,1.71.09,3.4.17,5.1-.27-.03-.61-.05-1.02-.05h-2.6c-.41,0-.76.01-1.02.05.08-1.69.13-3.39.17-5.1.03-1.71.06-3.58.06-5.63v-2.04c0-2.04-.02-3.92-.06-5.63Z"/>
            <path class="cls-3" d="M375.86,51.07c0,.27.02.53.09.77l-2.75-.05c-.05.48-.09,1.03-.12,1.66-.03.62-.06,1.26-.07,1.9-.01.64-.02,1.27-.03,1.88-.02.6-.02,1.11-.02,1.53,0,1.08.02,1.96.08,2.62.05.67.14,1.17.27,1.53.12.35.3.59.53.72.23.12.52.19.87.19.4,0,.69-.02.88-.08.19-.05.38-.12.57-.22v1.28c-.42.19-.94.35-1.57.5-.63.14-1.24.22-1.85.22-2.64,0-3.96-1.58-3.96-4.74,0-.6.01-1.29.03-2.05.02-.76.05-1.54.09-2.34.03-.8.06-1.59.08-2.38.02-.78.03-1.5.03-2.17l-2.19.03c.06-.25.09-.52.09-.79,0-.25-.03-.53-.09-.85l2.19.1c0-.65-.02-1.25-.03-1.82-.02-.57-.06-1.25-.1-2.04.73-.29,1.45-.6,2.16-.93.71-.32,1.42-.66,2.13-1.02l.32.22c-.05.33-.08.73-.11,1.18-.03.45-.06.92-.09,1.41-.03.49-.05.99-.07,1.5,0,.51-.01,1-.01,1.46l2.75-.07c-.07.32-.09.59-.09.84Z"/>
            <path class="cls-3" d="M378.34,46.72c-.04-1.71-.09-3.44-.17-5.19.27.03.61.07,1.02.1.42.02.85.04,1.3.04s.89-.01,1.3-.04c.42-.03.76-.06,1.03-.1-.07,1.75-.13,3.48-.18,5.18-.04,1.71-.05,3.58-.05,5.62l.06.06c.54-.88,1.21-1.56,1.99-2.04.78-.48,1.67-.72,2.68-.72,1.57,0,2.77.46,3.62,1.36.85.91,1.27,2.38,1.27,4.4,0,1.06-.02,2-.05,2.82-.03.81-.05,1.63-.05,2.44,0,.67.02,1.39.04,2.17.03.78.06,1.54.1,2.27-.27-.03-.61-.05-1.03-.05h-2.63c-.42,0-.76.01-1.04.05.14-1.09.23-2.36.26-3.84.04-1.47.06-3.15.06-5.05,0-1.31-.22-2.28-.67-2.9-.45-.62-1.08-.92-1.9-.92-.94,0-1.63.41-2.07,1.22-.44.82-.65,1.94-.65,3.38v1.25c0,.29,0,.72.02,1.27,0,.55.02,1.16.04,1.81.02.66.05,1.33.08,2,.03.68.06,1.27.1,1.77-.27-.03-.61-.05-1.03-.05h-2.6c-.41,0-.75.01-1.02.05.07-1.69.13-3.39.17-5.1.04-1.71.06-3.58.06-5.63v-2.04c0-2.04-.02-3.92-.06-5.63Z"/>
          </g>
          <g>
            <path class="cls-3" d="M296.42,65.6c-.4.53-.85,1.02-1.33,1.45-.48.44-.98.86-1.51,1.24l-.21-.15c.28-.52.55-1.06.81-1.58.25-.53.52-1.06.78-1.59.93.05,1.86.08,2.79.08.94.01,1.87.01,2.82.01s1.82,0,2.72-.01c.9,0,1.81-.03,2.73-.08-.07.61-.14,1.22-.19,1.83-.05.6-.1,1.22-.12,1.85h-.3c-.28-.49-.51-.99-.69-1.49-.18-.51-.33-1.03-.46-1.56h-2.84c-.04.14-.13.42-.27.83-.14.41-.31.89-.5,1.47-.2.57-.41,1.19-.66,1.86-.24.68-.48,1.36-.72,2.06-.23.7-.47,1.37-.7,2.02-.22.66-.43,1.24-.6,1.74-.18.51-.31.93-.41,1.25-.1.33-.16.51-.16.53,0,.16.12.29.39.41.26.12.55.22.88.31.34.09.67.17.98.22.32.06.55.09.67.1v.3c-.16-.02-.4-.03-.73-.05-.32-.02-.69-.03-1.09-.03-.4-.01-.82-.01-1.26-.01h-1.17c-.59,0-1.16,0-1.72.02-.56.01-1.14.03-1.72.07v-.3c.41-.08.85-.17,1.28-.26.44-.08.84-.23,1.2-.44.07-.05.18-.24.33-.56.15-.34.32-.77.53-1.3.2-.53.42-1.13.66-1.79.24-.67.48-1.36.73-2.06.24-.72.49-1.41.72-2.11.24-.7.45-1.34.64-1.93.18-.58.35-1.08.49-1.5.14-.41.23-.71.27-.86h-3.07Z"/>
            <path class="cls-3" d="M311.54,73.89c-.16.51-.39,1-.67,1.48-.29.48-.62.93-.99,1.35-.37.43-.78.8-1.21,1.12-.43.32-.88.58-1.35.77-.47.18-.92.28-1.37.28-.35,0-.66-.05-.89-.15-.23-.1-.41-.22-.55-.39-.14-.17-.23-.37-.28-.6-.04-.24-.07-.49-.07-.78,0-.46.1-.93.28-1.44.19-.51.45-.99.76-1.48.31-.48.67-.93,1.07-1.36.4-.42.82-.79,1.25-1.12.43-.32.86-.57,1.29-.76.43-.19.82-.28,1.17-.28s.66.05.89.14c.23.1.42.23.55.4.14.17.23.37.28.61.05.23.07.49.07.77,0,.46-.07.94-.23,1.44ZM308.08,71.54c-.29.23-.55.53-.78.9-.24.37-.45.78-.63,1.23-.18.45-.33.9-.47,1.35-.13.45-.23.86-.3,1.24-.07.38-.11.69-.11.94,0,.79.39,1.19,1.17,1.19.32,0,.62-.12.9-.35.29-.23.55-.53.78-.9.23-.37.44-.78.63-1.24.17-.45.33-.89.46-1.34.13-.45.23-.86.3-1.25.07-.38.11-.69.11-.93,0-.79-.39-1.19-1.17-1.19-.32,0-.62.11-.9.34Z"/>
            <path class="cls-3" d="M315.11,70.78c-.2.58-.44,1.2-.73,1.9-.28.7-.55,1.38-.82,2.05-.26.66-.5,1.28-.68,1.84-.19.55-.28.97-.28,1.27,0,.36.12.63.35.79.23.17.52.25.87.25.41,0,.86-.14,1.35-.41.48-.29.94-.62,1.39-1.02.45-.41.85-.83,1.2-1.29.36-.46.61-.87.76-1.23l.04.04c-.04.1-.12.3-.24.59-.12.3-.24.61-.36.95-.13.33-.24.64-.33.93-.1.29-.15.47-.15.55,0,.14.04.26.12.38.08.12.18.21.31.28.11.08.24.13.38.17.14.04.27.07.4.07.45,0,.89-.1,1.3-.3.41-.2.76-.43,1.06-.67.3-.26.54-.49.72-.7.18-.22.28-.33.28-.35,0-.07-.04-.1-.11-.1-.01,0-.08.06-.22.2-.13.13-.29.29-.49.45-.2.16-.41.32-.64.45-.24.13-.46.2-.68.2-.21,0-.38-.03-.53-.1-.14-.07-.22-.22-.22-.46,0-.14.05-.38.15-.73.1-.34.22-.73.38-1.17.15-.44.32-.9.51-1.4.19-.49.37-.97.56-1.41.18-.44.34-.85.48-1.21.13-.36.24-.63.31-.79h-1.54c-.32.81-.63,1.6-.93,2.4-.3.79-.68,1.56-1.14,2.29-.18.29-.39.58-.63.87-.23.28-.48.54-.73.77-.25.23-.5.41-.76.55-.25.14-.48.21-.69.21-.25,0-.44-.05-.58-.17-.13-.11-.2-.3-.2-.58,0-.24.09-.63.28-1.19.19-.55.41-1.15.67-1.8.26-.64.52-1.28.77-1.9.26-.62.45-1.1.58-1.45h-1.54Z"/>
            <path class="cls-3" d="M322.42,78.63h1.42c.07-.23.18-.58.31-1.01.14-.44.31-.92.51-1.45.2-.52.42-1.06.66-1.61.23-.55.49-1.05.76-1.49.27-.45.55-.81.85-1.1.29-.28.58-.43.87-.43.13,0,.26.01.4.03.14.02.26.08.36.18-.07.11-.13.22-.18.33-.05.11-.08.23-.08.35,0,.24.08.43.22.56.15.14.34.21.58.21.18,0,.33-.05.46-.13.13-.1.23-.21.31-.33.09-.13.14-.29.18-.45.04-.17.05-.32.05-.46,0-.4-.12-.71-.36-.95-.25-.23-.56-.34-.95-.34s-.76.12-1.09.35c-.33.24-.64.53-.93.88-.28.35-.54.71-.76,1.09-.23.38-.42.71-.59,1l-.04-.04,1.15-3.03h-1.54l-2.57,7.85Z"/>
            <path class="cls-3" d="M334.93,67.08c.17.14.25.37.25.69,0,.3-.1.57-.29.8-.2.23-.43.34-.7.34-.31,0-.54-.07-.71-.21-.16-.14-.25-.37-.25-.69s.1-.58.29-.81c.2-.22.43-.34.71-.34.31,0,.54.07.71.21ZM332.59,70.53c-.35,1.03-.67,1.96-.98,2.79-.3.84-.57,1.57-.79,2.18-.23.61-.4,1.11-.53,1.47s-.2.6-.2.7c0,.2.06.37.15.52.09.16.23.28.38.39.16.1.33.18.52.23.18.05.35.07.52.07.37,0,.76-.12,1.17-.33.4-.21.77-.46,1.11-.73.33-.28.61-.53.82-.79.22-.25.33-.41.33-.48,0-.08-.04-.13-.11-.13-.05,0-.16.08-.3.24-.15.15-.32.31-.52.51-.2.19-.43.36-.67.51-.24.16-.51.23-.78.23-.19,0-.38-.06-.58-.18-.19-.13-.28-.3-.28-.51,0-.32.11-.78.31-1.37.2-.58.43-1.21.69-1.87.26-.66.53-1.31.79-1.93.27-.63.45-1.14.56-1.52h-1.6Z"/>
            <path class="cls-3" d="M336.2,75.1c.1.07.21.17.34.29.71-.66,1.33-1.27,1.88-1.83.54-.56,1-1.07,1.39-1.51.38-.45.7-.83.96-1.14.26-.31.46-.55.61-.7.04-.04.09-.09.16-.16.06-.06.11-.09.13-.09.02,0,.06.01.1.03.03.02.05.07.05.16,0,.02-.02.08-.06.18-.04.1-.09.22-.16.35-.06.13-.13.27-.19.43-.06.16-.11.3-.15.42-.08.28-.13.63-.14,1.07-.01.43-.03.91-.07,1.46-.04.6-.23,1.19-.56,1.77-.33.58-.73,1.1-1.19,1.55-.46.45-.94.81-1.46,1.09-.51.28-.97.42-1.38.42-.62,0-1.09-.17-1.42-.5-.33-.33-.5-.81-.5-1.42,0-.2.02-.4.05-.63.03-.22.1-.44.2-.64.1-.2.22-.37.38-.5.15-.13.35-.2.6-.2.2,0,.34.03.44.11ZM336.6,75.65s.02.07.03.1c0,.03.01.08.01.15,0,.24-.09.44-.27.61-.18.17-.39.29-.62.37,0,.95.45,1.42,1.35,1.42.32,0,.61-.07.86-.2.26-.13.48-.31.67-.54.18-.22.34-.49.45-.78.12-.3.2-.6.25-.92.07-.5.11-1.01.13-1.53.02-.51.06-1.03.12-1.54l-2.97,2.86Z"/>
            <path class="cls-3" d="M345.09,70.78h1.55l-1.36,3.66.04.04c.28-.43.57-.88.87-1.34.3-.47.62-.9.99-1.28.36-.38.77-.7,1.23-.95.46-.25.99-.38,1.57-.38.35,0,.62.11.83.33.2.23.3.51.3.86,0,.16-.05.38-.15.69-.1.31-.21.63-.35.97-.13.34-.26.67-.4.99-.13.32-.23.56-.29.73l.04.05c.3-.48.59-.98.9-1.53.31-.54.65-1.04,1.02-1.5.38-.46.81-.84,1.3-1.14.49-.3,1.06-.45,1.72-.45.32,0,.61.11.87.33.26.23.38.51.38.86,0,.15-.05.38-.14.69-.1.3-.22.65-.38,1.01-.15.37-.31.76-.48,1.16-.17.4-.32.78-.48,1.13-.15.35-.28.65-.37.92-.1.26-.15.45-.15.55,0,.29.07.48.2.58.13.08.33.13.59.13.21,0,.42-.07.63-.21.21-.14.41-.3.59-.47.19-.17.35-.33.49-.47.13-.14.21-.21.26-.21.03,0,.06.01.09.03.03.02.05.05.05.09,0,.03-.1.15-.28.36-.19.22-.43.45-.73.7-.3.25-.65.47-1.03.68-.38.21-.77.31-1.16.31-.32,0-.63-.1-.92-.3-.3-.2-.44-.48-.44-.83,0-.11.05-.3.15-.58.1-.27.22-.59.38-.95.15-.36.31-.74.49-1.15.18-.4.34-.79.5-1.17.15-.38.27-.72.37-1.02.1-.3.15-.52.15-.68,0-.19-.07-.36-.21-.49-.14-.13-.3-.2-.5-.2-.38,0-.75.14-1.12.41-.37.27-.72.63-1.05,1.07-.34.44-.66.93-.96,1.47-.3.55-.57,1.09-.82,1.62-.24.53-.45,1.05-.64,1.52-.17.48-.31.88-.41,1.19h-1.46c.08-.37.24-.84.46-1.44.23-.6.47-1.22.72-1.87.24-.65.46-1.26.64-1.84.19-.58.28-1.02.28-1.33,0-.53-.27-.79-.81-.79-.33,0-.68.15-1.03.44-.36.29-.7.67-1.04,1.13-.33.46-.65.97-.95,1.52-.3.56-.57,1.11-.81,1.66-.24.54-.45,1.04-.61,1.49-.17.46-.28.8-.33,1.04h-1.36l2.56-7.85Z"/>
            <path class="cls-2" d="M372.61,69.28c-.02-.49-.09-.98-.17-1.47-.09-.48-.25-.92-.46-1.31-.22-.39-.51-.7-.87-.95-.37-.24-.83-.37-1.39-.37-.63,0-1.22.15-1.78.44-.56.3-1.06.69-1.53,1.17-.46.49-.87,1.05-1.22,1.67-.36.63-.66,1.27-.9,1.94-.25.67-.43,1.33-.56,1.98-.13.65-.2,1.25-.2,1.79s.07,1.03.18,1.49c.12.47.3.87.55,1.23.25.36.58.63.99.84.41.2.91.3,1.49.3.61,0,1.18-.12,1.71-.36.53-.23,1.02-.54,1.47-.91.45-.38.87-.79,1.24-1.27.38-.47.72-.94,1.02-1.41l.27.19c-.29.57-.67,1.14-1.14,1.7-.48.56-1,1.06-1.57,1.52-.58.45-1.2.83-1.86,1.12-.66.29-1.32.43-1.99.43s-1.25-.11-1.78-.33c-.53-.22-.99-.54-1.36-.94-.38-.41-.66-.89-.86-1.44-.2-.55-.31-1.14-.31-1.78,0-1.25.25-2.46.75-3.65.5-1.19,1.19-2.26,2.05-3.19.86-.93,1.86-1.68,3.01-2.25,1.15-.56,2.37-.84,3.66-.84.45,0,.9.06,1.36.17.46.12.88.27,1.27.47-.17.67-.31,1.34-.46,2.01-.14.67-.27,1.34-.4,2h-.21Z"/>
            <path class="cls-3" d="M375.09,77.52c.23.3.61.45,1.14.45.3,0,.58-.05.82-.13.25-.09.48-.21.68-.35.21-.14.41-.29.59-.46.18-.16.36-.31.52-.45.07-.06.13-.12.17-.17.05-.06.08-.08.11-.08.09,0,.15.03.15.08,0,.07-.13.24-.38.51-.25.28-.58.56-.98.85-.4.29-.86.55-1.37.78-.51.23-1.02.35-1.55.35-.59,0-1.06-.16-1.39-.47-.34-.31-.52-.76-.52-1.35,0-.44.09-.91.27-1.42.18-.5.42-.99.72-1.47.3-.48.64-.94,1.03-1.38.39-.44.8-.83,1.22-1.17.43-.34.85-.61,1.28-.8.42-.19.82-.29,1.2-.29.67,0,1,.33,1,1,0,.46-.18.87-.53,1.23-.36.36-.78.68-1.27.94-.5.26-1,.48-1.53.64-.53.17-.97.3-1.32.38-.11.21-.2.47-.28.8-.08.31-.11.59-.11.81,0,.48.11.88.34,1.18ZM378.06,71.46c-.13-.07-.29-.1-.48-.1-.27,0-.53.12-.77.35-.26.23-.49.5-.69.81-.21.31-.39.63-.52.97-.14.33-.24.6-.31.81.25-.05.55-.14.89-.29.34-.16.67-.34.97-.57.3-.22.56-.47.78-.75.21-.28.32-.56.32-.85,0-.2-.06-.32-.19-.38Z"/>
            <path class="cls-3" d="M384.42,70.78l-1.46,3.97.04.04c.2-.38.46-.81.78-1.3.31-.49.68-.95,1.07-1.38.4-.44.83-.82,1.29-1.12.45-.31.92-.46,1.4-.46.18,0,.36.02.54.07.18.05.34.12.49.21.14.09.26.21.35.36.09.16.13.34.13.55,0,.17-.05.4-.15.71-.1.31-.22.65-.38,1.01-.15.37-.31.75-.49,1.15-.17.4-.34.77-.5,1.12-.15.36-.28.68-.37.97-.1.28-.15.5-.15.64,0,.2.07.35.21.46.14.11.3.16.49.16s.37-.04.54-.12c.17-.07.32-.16.46-.25.14-.09.25-.17.35-.25.1-.08.18-.12.23-.12.03,0,.06.01.08.03.03.02.04.05.04.09,0,.04-.09.14-.27.29-.19.15-.42.31-.69.48-.28.16-.59.31-.92.44-.33.12-.64.18-.94.18-.32,0-.62-.07-.9-.22-.29-.14-.43-.4-.43-.76,0-.17.05-.4.15-.69.1-.29.23-.62.37-.97.16-.36.32-.73.49-1.12.17-.39.33-.76.49-1.12.15-.35.28-.68.37-.98.1-.3.15-.54.15-.7,0-.47-.25-.71-.75-.71-.32,0-.65.12-.98.37-.33.24-.66.57-.99.97-.32.4-.63.86-.93,1.36-.31.51-.59,1.03-.85,1.56-.26.53-.48,1.05-.68,1.55-.2.51-.36.96-.47,1.37h-1.41c.41-1.32.83-2.63,1.27-3.93.44-1.29.88-2.6,1.32-3.92h1.59Z"/>
            <path class="cls-3" d="M396.87,71.29h-2.7c-.08.32-.23.78-.44,1.38-.2.6-.42,1.22-.64,1.85-.22.63-.4,1.21-.56,1.74s-.24.89-.24,1.07c0,.49.23.73.69.73.25,0,.49-.06.71-.16.22-.11.43-.23.6-.36.18-.13.33-.24.45-.35.12-.12.18-.17.2-.17.08,0,.12.04.12.13,0,.05-.1.18-.31.37-.21.2-.47.4-.78.6-.31.2-.66.38-1.01.53-.36.16-.69.24-.98.24-.36,0-.68-.1-.96-.3-.27-.2-.4-.49-.4-.89,0-.02.04-.2.14-.51.1-.32.24-.74.41-1.25.17-.5.37-1.09.59-1.75.21-.66.44-1.35.69-2.06.24-.72.48-1.45.73-2.19.24-.74.48-1.44.7-2.11l1.61-.4-1.14,3.36h2.66l-.13.51Z"/>
            <path class="cls-3" d="M398.26,77.52c.23.3.61.45,1.14.45.31,0,.58-.05.82-.13.25-.09.47-.21.68-.35.21-.14.4-.29.59-.46.18-.16.35-.31.52-.45.07-.06.12-.12.16-.17.04-.06.08-.08.11-.08.1,0,.14.03.14.08,0,.07-.12.24-.37.51-.25.28-.58.56-.98.85-.4.29-.86.55-1.36.78-.52.23-1.03.35-1.56.35-.59,0-1.05-.16-1.39-.47-.35-.31-.51-.76-.51-1.35,0-.44.08-.91.27-1.42.18-.5.42-.99.72-1.47.3-.48.64-.94,1.03-1.38.39-.44.8-.83,1.23-1.17.42-.34.84-.61,1.27-.8.43-.19.82-.29,1.2-.29.67,0,1.01.33,1.01,1,0,.46-.18.87-.54,1.23-.35.36-.77.68-1.27.94-.49.26-1.01.48-1.53.64-.53.17-.97.3-1.32.38-.11.21-.2.47-.28.8-.07.31-.11.59-.11.81,0,.48.12.88.34,1.18ZM401.23,71.46c-.13-.07-.29-.1-.48-.1-.26,0-.52.12-.77.35-.25.23-.48.5-.69.81-.21.31-.38.63-.52.97-.14.33-.25.6-.31.81.25-.05.54-.14.89-.29.35-.16.67-.34.97-.57.3-.22.57-.47.78-.75.22-.28.33-.56.33-.85,0-.2-.07-.32-.19-.38Z"/>
            <path class="cls-3" d="M405.99,70.78h1.54l-1.15,3.03.04.04c.17-.29.36-.62.59-1,.22-.38.48-.74.76-1.09.29-.35.6-.64.93-.88.33-.24.69-.35,1.08-.35s.71.12.95.34c.25.23.37.55.37.95,0,.14-.02.29-.05.46-.03.17-.09.32-.18.45-.08.13-.19.24-.31.33-.12.08-.28.13-.46.13-.24,0-.43-.07-.58-.21-.15-.13-.22-.32-.22-.56,0-.12.02-.24.07-.35.05-.11.11-.22.18-.33-.09-.1-.22-.16-.35-.18-.14-.02-.27-.03-.4-.03-.29,0-.59.14-.87.43-.29.29-.58.65-.85,1.1-.28.44-.53.94-.76,1.49-.24.55-.46,1.09-.66,1.61-.2.53-.37,1.01-.51,1.45-.14.44-.24.78-.31,1.01h-1.42l2.57-7.85Z"/>
          </g>
          <g>
            <path class="cls-2" d="M153.82,42.2c.42-.32.74-.78.96-1.37.21-.59.35-1.28.41-2.08.06-.8.09-1.7.09-2.68v-6.9c0-1.11-.03-2.19-.07-3.25-.05-1.06-.1-2.15-.16-3.25.22.04.44.07.64.1.2.03.41.04.6.04.21,0,.41-.01.61-.04.21-.03.41-.06.64-.1-.06,1.11-.12,2.19-.16,3.25-.05,1.06-.07,2.14-.07,3.25,0,.75,0,1.53.01,2.34.01.81.02,1.59.03,2.37,0,.78.02,1.52.03,2.24.01.72.01,1.38.01,1.98,0,.75-.12,1.44-.36,2.07-.24.63-.59,1.18-1.04,1.67-.45.49-.99.87-1.61,1.14-.63.28-1.31.41-2.04.41l-.2-.69c.7,0,1.26-.16,1.68-.49Z"/>
            <path class="cls-3" d="M163.48,29.07c.63-.2,1.28-.3,1.96-.3.6,0,1.15.09,1.65.26.5.18.93.43,1.27.75.35.33.62.72.82,1.18.2.46.3.97.3,1.52,0,.95-.02,1.9-.05,2.85-.03.94-.05,1.95-.05,3,0,.2,0,.41.02.64,0,.22.05.43.11.6.07.17.17.32.29.44.12.12.31.17.56.17.09,0,.17,0,.26,0,.09,0,.18-.04.26-.09v.56c-.18.09-.41.16-.69.21-.28.05-.58.07-.9.07-.54,0-.96-.13-1.24-.41-.29-.28-.46-.63-.51-1.07-.6.6-1.19,1.05-1.77,1.33-.58.29-1.3.43-2.14.43-.42,0-.82-.06-1.23-.17-.4-.12-.75-.31-1.05-.58-.31-.27-.56-.59-.75-.97-.2-.38-.29-.8-.29-1.29,0-1.01.31-1.78.94-2.33.63-.55,1.48-.92,2.58-1.11.9-.15,1.61-.28,2.12-.39.5-.11.88-.22,1.12-.34.25-.12.39-.26.44-.41.05-.16.07-.37.07-.62,0-.41-.05-.82-.15-1.2-.1-.38-.26-.72-.48-1.01-.22-.28-.5-.51-.85-.69-.35-.18-.78-.27-1.28-.27-.67,0-1.29.16-1.86.45-.58.3-1.01.72-1.29,1.25h-.28v-1.31c.75-.57,1.44-.96,2.08-1.16ZM166.6,34.95c-.37.07-.75.14-1.13.22-.38.07-.76.17-1.13.29-.37.12-.7.27-.99.47-.29.21-.52.46-.7.76-.17.3-.26.69-.26,1.16,0,.78.22,1.38.67,1.79.45.4.94.6,1.49.6.63,0,1.21-.17,1.73-.53.52-.35.92-.76,1.21-1.24l.1-3.77c-.29.1-.61.18-.98.25Z"/>
            <path class="cls-3" d="M173.42,34.45c-.01-.67-.02-1.33-.04-1.99-.02-.66-.05-1.29-.07-1.89-.03-.6-.06-1.12-.1-1.55.46.09.83.13,1.11.13s.65-.04,1.11-.13c-.04.44-.07.85-.1,1.25-.02.4-.03.8-.03,1.2h.05c.11-.27.28-.56.5-.86.21-.31.49-.6.83-.88.35-.28.75-.5,1.24-.68.48-.18,1.03-.28,1.65-.28s1.27.12,1.88.36c.62.24,1.17.62,1.64,1.12.48.5.86,1.15,1.15,1.92.29.78.44,1.7.44,2.78s-.16,2-.48,2.79c-.32.79-.73,1.44-1.25,1.96-.51.52-1.09.9-1.75,1.14-.66.24-1.31.36-1.97.36-1.85,0-3.17-.8-3.95-2.41h.01v1.58c0,.53,0,1.13,0,1.79,0,.66.02,1.31.03,1.96.01.65.02,1.27.04,1.87.02.59.04,1.1.06,1.51-.45-.09-.82-.13-1.11-.13s-.64.05-1.11.13c.04-.42.07-.92.1-1.51.03-.6.05-1.22.07-1.87.02-.65.03-1.31.04-1.96.01-.66.01-1.26.01-1.79v-4.06c0-.57,0-1.19-.01-1.85ZM182.15,32.43c-.21-.65-.47-1.17-.8-1.56-.33-.4-.7-.67-1.11-.82-.42-.16-.83-.23-1.23-.23-.67,0-1.24.14-1.71.43-.48.28-.86.66-1.16,1.14-.3.48-.52,1.03-.66,1.68-.13.64-.2,1.32-.2,2.04,0,3.47,1.21,5.21,3.65,5.21.6,0,1.12-.14,1.57-.41.44-.28.81-.66,1.1-1.16.29-.49.51-1.07.66-1.73.14-.66.21-1.37.21-2.11,0-1.01-.1-1.83-.31-2.48Z"/>
            <path class="cls-3" d="M189.94,29.07c.64-.2,1.29-.3,1.96-.3.6,0,1.15.09,1.65.26.5.18.93.43,1.27.75.35.33.62.72.82,1.18.2.46.3.97.3,1.52,0,.95-.02,1.9-.04,2.85-.03.94-.05,1.95-.05,3,0,.2,0,.41,0,.64,0,.22.05.43.12.6.07.17.16.32.29.44.12.12.31.17.57.17.08,0,.17,0,.26,0,.09,0,.18-.04.26-.09v.56c-.18.09-.41.16-.69.21-.28.05-.58.07-.91.07-.54,0-.96-.13-1.24-.41-.29-.28-.46-.63-.51-1.07-.6.6-1.19,1.05-1.77,1.33-.59.29-1.3.43-2.14.43-.42,0-.83-.06-1.23-.17-.4-.12-.75-.31-1.06-.58-.31-.27-.56-.59-.75-.97-.19-.38-.29-.8-.29-1.29,0-1.01.32-1.78.94-2.33.63-.55,1.49-.92,2.59-1.11.9-.15,1.6-.28,2.11-.39.51-.11.88-.22,1.12-.34.24-.12.39-.26.44-.41.05-.16.08-.37.08-.62,0-.41-.05-.82-.15-1.2-.1-.38-.26-.72-.48-1.01-.22-.28-.5-.51-.85-.69-.35-.18-.78-.27-1.27-.27-.67,0-1.29.16-1.87.45-.58.3-1.01.72-1.29,1.25h-.28v-1.31c.75-.57,1.45-.96,2.08-1.16ZM193.07,34.95c-.37.07-.75.14-1.13.22-.38.07-.76.17-1.13.29-.37.12-.71.27-.99.47-.29.21-.53.46-.7.76-.17.3-.26.69-.26,1.16,0,.78.22,1.38.68,1.79.45.4.94.6,1.49.6.63,0,1.21-.17,1.73-.53.52-.35.92-.76,1.21-1.24l.1-3.77c-.28.1-.61.18-.99.25Z"/>
            <path class="cls-3" d="M207.58,31.02c-.48-.64-1.15-.96-1.99-.96-1.16,0-2.01.36-2.56,1.08-.54.72-.81,1.73-.81,3.04v2.13c0,.76.01,1.55.04,2.37.02.83.08,1.58.16,2.24-.38-.03-.76-.05-1.12-.05s-.74.02-1.12.05c.08-.67.14-1.42.16-2.24.03-.83.04-1.62.04-2.37v-2.61c0-.75-.01-1.54-.04-2.37-.02-.82-.08-1.6-.16-2.32.47.08.84.13,1.13.13.14,0,.28-.01.44-.04.16-.02.35-.05.56-.09-.06.67-.09,1.34-.09,2h.05c.47-.72,1.03-1.27,1.68-1.67.65-.4,1.43-.59,2.33-.59.46,0,.94.06,1.41.2.48.13.9.36,1.29.68.38.33.7.77.94,1.33.24.56.36,1.28.36,2.14,0,.72-.02,1.46-.05,2.22-.03.76-.05,1.57-.05,2.42v1.63c0,.27,0,.53.01.79,0,.26.02.51.03.74-.34-.03-.7-.05-1.07-.05s-.7.02-1.04.05c.03-.87.07-1.76.12-2.68.04-.92.07-1.86.07-2.84v-1.53c0-1.25-.24-2.2-.72-2.85Z"/>
          </g>
        </g>
      </g>
      <rect class="cls-1" width="427.29" height="97.11"/>
    </g>
  </g>
</svg>